<svg viewBox="0 6 200 200" xmlns="http://www.w3.org/2000/svg">
  <path fill="#000000" d="M45.4,-78.9C59.5,-70.5,72.1,-59.7,80.5,-46.2C88.8,-32.6,92.8,-16.3,92.9,0C92.9,16.4,89.1,32.8,80.8,46.5C72.6,60.2,60,71.2,
  45.8,78.9C31.6,86.7,15.8,91.1,0.6,90.1C-14.7,89.1,-29.4,82.7,-43.4,74.9C-57.5,67.1,-71,58,-80.3,45.2C-89.5,32.5,-94.5,16.3,-94,0.3C-93.4,-15.6,-87.2,
  -31.2,-78,-44C-68.8,-56.7,-56.5,-66.7,-43,-75.4C-29.5,-84.2,-14.7,-91.8,0.4,-92.6C15.6,-93.3,31.3,-87.3,45.4,-78.9Z"
    transform="translate(100 100)" />
</svg>